<svg id="图层_1" data-name="图层 1" xmlns="http://www.w3.org/2000/svg" viewBox="0 0 419.999 350.963"><defs><style>.cls-1{fill:#fff;}.cls-2,.cls-3,.cls-5,.cls-6{fill:none;}.cls-2{stroke:#dfdfdf;}.cls-2,.cls-3,.cls-5{stroke-linejoin:round;}.cls-2,.cls-3,.cls-6{stroke-width:0.5px;}.cls-3,.cls-6{stroke:#262626;}.cls-3{stroke-linecap:square;}.cls-4{fill:#076cb0;}.cls-5{stroke:#ce521c;stroke-width:2.5px;}.cls-6{stroke-miterlimit:10;}.cls-7,.cls-8{font-size:16px;}.cls-10,.cls-11,.cls-12,.cls-7,.cls-8{fill:#231815;}.cls-10,.cls-12,.cls-7,.cls-9{font-family:CambriaMath, Cambria Math;}.cls-11,.cls-8{font-family:SimSun, SimSun;}.cls-10,.cls-11,.cls-12{font-size:12px;}.cls-12{letter-spacing:0em;}</style></defs><title>单个小球(19mm)受风力与风速的关系</title><rect class="cls-1" width="419.999" height="315.428"/><rect class="cls-1" width="419.999" height="315.428"/><rect class="cls-1" x="54.428" y="23.571" width="325.713" height="246.428"/><path class="cls-2" d="M264.428,410.275V163.847m65.143,246.428V163.847m65.143,246.428V163.847m65.142,246.428V163.847M525,410.275V163.847m65.143,246.428V163.847m0,246.428H264.428m325.714-35.2H264.428m325.714-35.2H264.428m325.714-35.2H264.428m325.714-35.2H264.428m325.714-35.2H264.428m325.714-35.2H264.428m325.714-35.2H264.428" transform="translate(-210 -140.276)"/><path class="cls-3" d="M264.428,410.275H590.142M264.428,163.847H590.142M264.428,410.275v-3.257m65.143,3.257v-3.257m65.143,3.257v-3.257m65.142,3.257v-3.257M525,410.275v-3.257m65.143,3.257v-3.257M264.428,163.847V167.1m65.143-3.257V167.1m65.143-3.257V167.1m65.142-3.257V167.1M525,163.847V167.1m65.143-3.257V167.1" transform="translate(-210 -140.276)"/><path class="cls-3" d="M264.428,410.275V163.847M590.142,410.275V163.847M264.428,410.275h3.258m-3.258-35.2h3.258m-3.258-35.2h3.258m-3.258-35.2h3.258m-3.258-35.2h3.258m-3.258-35.2h3.258m-3.258-35.2h3.258m-3.258-35.2h3.258M590.142,410.275h-3.258m3.258-35.2h-3.258m3.258-35.2h-3.258m3.258-35.2h-3.258m3.258-35.2h-3.258m3.258-35.2h-3.258m3.258-35.2h-3.258m3.258-35.2h-3.258" transform="translate(-210 -140.276)"/><path class="cls-4" d="M527.767,196.454a2.2,2.2,0,1,0-2.2,2.2,2.2,2.2,0,0,0,2.2-2.2Z" transform="translate(-210 -140.276)"/><path class="cls-4" d="M525.567,194.5a1.95,1.95,0,0,1,1.95,1.95h0a1.95,1.95,0,1,1-1.95-1.95Zm0-.5a2.45,2.45,0,1,0,2.45,2.45h0a2.45,2.45,0,0,0-2.45-2.45Z" transform="translate(-210 -140.276)"/><path class="cls-4" d="M508.36,206.8a2.2,2.2,0,1,0-2.2,2.2,2.2,2.2,0,0,0,2.2-2.2Z" transform="translate(-210 -140.276)"/><path class="cls-4" d="M506.16,204.85a1.95,1.95,0,0,1,1.95,1.95h0a1.95,1.95,0,1,1-1.95-1.95Zm0-.5a2.451,2.451,0,1,0,2.45,2.45h0a2.45,2.45,0,0,0-2.45-2.45Z" transform="translate(-210 -140.276)"/><path class="cls-4" d="M472.733,230.941a2.2,2.2,0,1,0-2.2,2.2,2.2,2.2,0,0,0,2.2-2.2Z" transform="translate(-210 -140.276)"/><path class="cls-4" d="M470.533,228.991a1.95,1.95,0,0,1,1.95,1.95h0a1.95,1.95,0,1,1-1.95-1.95Zm0-.5a2.451,2.451,0,1,0,2.45,2.45h0a2.451,2.451,0,0,0-2.45-2.45Z" transform="translate(-210 -140.276)"/><path class="cls-4" d="M449.724,244.736a2.2,2.2,0,1,0-2.2,2.2,2.2,2.2,0,0,0,2.2-2.2Z" transform="translate(-210 -140.276)"/><path class="cls-4" d="M447.524,242.786a1.95,1.95,0,0,1,1.95,1.95h0a1.95,1.95,0,1,1-1.95-1.95Zm0-.5a2.451,2.451,0,1,0,2.45,2.45h0a2.45,2.45,0,0,0-2.45-2.45Z" transform="translate(-210 -140.276)"/><path class="cls-4" d="M426.346,261.98a2.2,2.2,0,1,0-2.2,2.2,2.2,2.2,0,0,0,2.2-2.2Z" transform="translate(-210 -140.276)"/><path class="cls-4" d="M424.146,260.03a1.95,1.95,0,0,1,1.95,1.95h0a1.95,1.95,0,1,1-1.95-1.95Zm0-.5a2.45,2.45,0,1,0,2.45,2.45h0a2.45,2.45,0,0,0-2.45-2.45Z" transform="translate(-210 -140.276)"/><path class="cls-4" d="M409.18,279.224a2.2,2.2,0,1,0-2.2,2.2,2.2,2.2,0,0,0,2.2-2.2Z" transform="translate(-210 -140.276)"/><path class="cls-4" d="M406.98,277.274a1.95,1.95,0,0,1,1.95,1.95h0a1.95,1.95,0,1,1-1.95-1.95Zm0-.5a2.45,2.45,0,1,0,2.45,2.45h0a2.45,2.45,0,0,0-2.45-2.45Z" transform="translate(-210 -140.276)"/><path class="cls-4" d="M391.3,293.019a2.2,2.2,0,1,0-2.2,2.2,2.2,2.2,0,0,0,2.2-2.2Z" transform="translate(-210 -140.276)"/><path class="cls-4" d="M389.1,291.069a1.95,1.95,0,0,1,1.95,1.95h0a1.95,1.95,0,1,1-1.95-1.95Zm0-.5a2.45,2.45,0,1,0,2.45,2.45h0a2.45,2.45,0,0,0-2.45-2.45Z" transform="translate(-210 -140.276)"/><path class="cls-4" d="M380.99,296.467a2.2,2.2,0,1,0-2.2,2.2,2.2,2.2,0,0,0,2.2-2.2Z" transform="translate(-210 -140.276)"/><path class="cls-4" d="M378.79,294.517a1.95,1.95,0,0,1,1.95,1.95h0a1.95,1.95,0,1,1-1.95-1.95Zm0-.5a2.451,2.451,0,1,0,2.45,2.45h0a2.45,2.45,0,0,0-2.45-2.45Z" transform="translate(-210 -140.276)"/><path class="cls-4" d="M368.329,313.711a2.2,2.2,0,1,0-2.2,2.2,2.2,2.2,0,0,0,2.2-2.2Z" transform="translate(-210 -140.276)"/><path class="cls-4" d="M366.129,311.761a1.95,1.95,0,0,1,1.95,1.95h0a1.95,1.95,0,1,1-1.95-1.95Zm0-.5a2.45,2.45,0,1,0,2.45,2.45h0a2.45,2.45,0,0,0-2.45-2.45Z" transform="translate(-210 -140.276)"/><path class="cls-4" d="M355.432,324.057a2.2,2.2,0,1,0-2.2,2.2,2.2,2.2,0,0,0,2.2-2.2Z" transform="translate(-210 -140.276)"/><path class="cls-4" d="M353.232,322.107a1.95,1.95,0,0,1,1.95,1.95h0a1.95,1.95,0,1,1-1.95-1.95Zm0-.5a2.45,2.45,0,1,0,2.45,2.45h0a2.45,2.45,0,0,0-2.45-2.45Z" transform="translate(-210 -140.276)"/><path class="cls-4" d="M344.534,330.955a2.2,2.2,0,1,0-2.2,2.2,2.2,2.2,0,0,0,2.2-2.2Z" transform="translate(-210 -140.276)"/><path class="cls-4" d="M342.335,329.005a1.95,1.95,0,0,1,1.95,1.95h0a1.95,1.95,0,1,1-1.95-1.95Zm0-.5a2.45,2.45,0,1,0,2.45,2.45h0a2.45,2.45,0,0,0-2.45-2.45Z" transform="translate(-210 -140.276)"/><path class="cls-4" d="M337.158,341.3a2.2,2.2,0,1,0-2.2,2.2,2.2,2.2,0,0,0,2.2-2.2Z" transform="translate(-210 -140.276)"/><path class="cls-4" d="M334.958,339.351a1.95,1.95,0,0,1,1.95,1.95h0a1.95,1.95,0,1,1-1.95-1.95Zm0-.5a2.45,2.45,0,1,0,2.45,2.45h0a2.45,2.45,0,0,0-2.45-2.45Z" transform="translate(-210 -140.276)"/><path class="cls-4" d="M331.32,344.75a2.2,2.2,0,1,0-2.2,2.2,2.2,2.2,0,0,0,2.2-2.2Z" transform="translate(-210 -140.276)"/><path class="cls-4" d="M329.12,342.8a1.95,1.95,0,0,1,1.95,1.95h0a1.95,1.95,0,1,1-1.95-1.95Zm0-.5a2.45,2.45,0,1,0,2.45,2.45h0a2.45,2.45,0,0,0-2.45-2.45Z" transform="translate(-210 -140.276)"/><path class="cls-4" d="M324.746,351.647a2.2,2.2,0,1,0-2.2,2.2,2.2,2.2,0,0,0,2.2-2.2Z" transform="translate(-210 -140.276)"/><path class="cls-4" d="M322.547,349.7a1.95,1.95,0,0,1,1.95,1.95h0a1.95,1.95,0,1,1-1.95-1.95Zm0-.5a2.45,2.45,0,1,0,2.45,2.45h0a2.45,2.45,0,0,0-2.45-2.45Z" transform="translate(-210 -140.276)"/><path class="cls-4" d="M320.144,355.1a2.2,2.2,0,1,0-2.2,2.2,2.2,2.2,0,0,0,2.2-2.2Z" transform="translate(-210 -140.276)"/><path class="cls-4" d="M317.944,353.146a1.95,1.95,0,0,1,1.95,1.95h0a1.95,1.95,0,1,1-1.95-1.95Zm0-.5a2.45,2.45,0,1,0,2.45,2.45h0a2.45,2.45,0,0,0-2.45-2.45Z" transform="translate(-210 -140.276)"/><path class="cls-4" d="M314.6,355.1a2.2,2.2,0,1,0-2.2,2.2,2.2,2.2,0,0,0,2.2-2.2Z" transform="translate(-210 -140.276)"/><path class="cls-4" d="M312.4,353.146a1.95,1.95,0,0,1,1.95,1.95h0a1.95,1.95,0,1,1-1.95-1.95Zm0-.5a2.45,2.45,0,1,0,2.45,2.45h0a2.45,2.45,0,0,0-2.45-2.45Z" transform="translate(-210 -140.276)"/><polyline class="cls-5" points="54.428 269.999 54.559 269.859 54.689 269.718 54.819 269.578 54.95 269.438 55.08 269.298 55.21 269.158 55.34 269.018 55.471 268.878 55.601 268.737 55.731 268.598 55.862 268.458 55.992 268.318 56.122 268.178 56.252 268.038 56.383 267.898 56.513 267.758 56.643 267.618 56.774 267.479 56.904 267.339 57.034 267.199 57.164 267.06 57.295 266.92 57.425 266.781 57.555 266.641 57.686 266.502 57.816 266.362 57.946 266.223 58.076 266.083 58.207 265.944 58.337 265.804 58.467 265.665 58.598 265.526 58.728 265.387 58.858 265.248 58.988 265.108 59.119 264.969 59.249 264.83 59.379 264.691 59.51 264.552 59.64 264.413 59.77 264.274 59.9 264.135 60.031 263.996 60.161 263.857 60.291 263.718 60.421 263.58 60.552 263.441 60.682 263.302 60.812 263.163 60.943 263.025 61.073 262.886 61.203 262.748 61.333 262.609 61.464 262.47 61.594 262.332 61.724 262.194 61.855 262.055 61.985 261.917 62.115 261.778 62.246 261.64 62.376 261.501 62.506 261.363 62.636 261.225 62.767 261.087 62.897 260.949 63.027 260.811 63.157 260.673 63.288 260.535 63.418 260.397 63.548 260.259 63.679 260.121 63.809 259.983 63.939 259.845 64.07 259.707 64.2 259.569 64.33 259.431 64.46 259.293 64.591 259.155 64.721 259.018 64.851 258.88 64.981 258.743 65.112 258.605 65.242 258.468 65.372 258.33 65.503 258.192 65.633 258.055 65.763 257.917 65.893 257.78 66.024 257.643 66.154 257.505 66.284 257.368 66.415 257.231 66.545 257.094 66.675 256.956 66.805 256.819 66.936 256.682 67.066 256.545 67.196 256.408 67.327 256.271 67.457 256.134 67.587 255.997 67.717 255.86 67.848 255.723 67.978 255.586 68.108 255.45 68.239 255.312 68.369 255.176 68.499 255.039 68.629 254.902 68.76 254.766 68.89 254.629 69.02 254.493 69.151 254.356 69.281 254.22 69.411 254.083 69.541 253.947 69.672 253.81 69.802 253.674 69.932 253.537 70.063 253.401 70.193 253.265 70.323 253.128 70.453 252.992 70.584 252.856 70.714 252.72 70.844 252.584 70.975 252.447 71.105 252.312 71.235 252.175 71.365 252.039 71.496 251.904 71.626 251.768 71.756 251.632 71.887 251.496 72.017 251.36 72.147 251.224 72.277 251.088 72.408 250.953 72.538 250.817 72.668 250.681 72.799 250.546 72.929 250.41 73.059 250.275 73.189 250.139 73.32 250.004 73.45 249.868 73.58 249.732 73.711 249.597 73.841 249.462 73.971 249.327 74.101 249.191 74.232 249.056 74.362 248.921 74.492 248.786 74.623 248.65 74.753 248.515 74.883 248.38 75.013 248.245 75.144 248.11 75.274 247.975 75.404 247.84 75.535 247.705 75.665 247.57 75.795 247.435 75.925 247.301 76.056 247.166 76.186 247.031 76.316 246.897 76.447 246.762 76.577 246.627 76.707 246.492 76.837 246.358 76.968 246.223 77.098 246.089 77.228 245.954 77.359 245.82 77.489 245.685 77.619 245.551 77.749 245.417 77.88 245.282 78.01 245.148 78.14 245.014 78.271 244.879 78.401 244.745 78.531 244.611 78.661 244.477 78.792 244.343 78.922 244.209 79.052 244.075 79.183 243.941 79.313 243.807 79.443 243.673 79.573 243.539 79.704 243.405 79.834 243.271 79.964 243.138 80.095 243.004 80.225 242.87 80.355 242.736 80.485 242.603 80.616 242.469 80.746 242.336 80.876 242.202 81.007 242.068 81.137 241.935 81.267 241.802 81.397 241.668 81.528 241.535 81.658 241.401 81.788 241.268 81.919 241.135 82.049 241.002 82.179 240.868 82.309 240.735 82.44 240.602 82.57 240.469 82.7 240.336 82.831 240.203 82.961 240.069 83.091 239.937 83.221 239.804 83.352 239.671 83.482 239.538 83.612 239.405 83.743 239.272 83.873 239.139 84.003 239.007 84.133 238.874 84.264 238.741 84.394 238.608 84.524 238.476 84.655 238.344 84.785 238.211 84.915 238.078 85.045 237.946 85.176 237.814 85.306 237.681 85.436 237.549 85.567 237.416 85.697 237.284 85.827 237.152 85.957 237.019 86.088 236.887 86.218 236.755 86.348 236.623 86.479 236.491 86.609 236.358 86.739 236.227 86.869 236.095 87 235.962 87.13 235.831 87.26 235.699 87.391 235.567 87.521 235.435 87.651 235.303 87.781 235.171 87.912 235.04 88.042 234.908 88.172 234.776 88.303 234.645 88.433 234.513 88.563 234.382 88.693 234.25 88.824 234.118 88.954 233.987 89.084 233.855 89.215 233.724 89.345 233.593 89.475 233.461 89.605 233.33 89.736 233.199 89.866 233.068 89.996 232.936 90.127 232.805 90.257 232.674 90.387 232.543 90.517 232.412 90.648 232.281 90.778 232.15 90.908 232.018 91.039 231.888 91.169 231.757 91.299 231.626 91.429 231.495 91.56 231.364 91.69 231.233 91.82 231.103 91.951 230.972 92.081 230.841 92.211 230.71 92.341 230.58 92.472 230.449 92.602 230.319 92.732 230.188 92.863 230.058 92.993 229.927 93.123 229.797 93.253 229.666 93.384 229.536 93.514 229.406 93.644 229.276 93.775 229.145 93.905 229.015 94.035 228.885 94.165 228.755 94.296 228.625 94.426 228.495 94.556 228.364 94.687 228.235 94.817 228.105 94.947 227.975 95.077 227.845 95.208 227.715 95.338 227.585 95.468 227.455 95.599 227.326 95.729 227.196 95.859 227.066 95.989 226.936 96.12 226.807 96.25 226.677 96.38 226.547 96.511 226.418 96.641 226.288 96.771 226.159 96.901 226.03 97.032 225.9 97.162 225.771 97.292 225.641 97.423 225.512 97.553 225.383 97.683 225.253 97.813 225.124 97.944 224.995 98.074 224.866 98.204 224.737 98.335 224.608 98.465 224.479 98.595 224.35 98.725 224.221 98.856 224.092 98.986 223.963 99.116 223.834 99.247 223.705 99.377 223.576 99.507 223.447 99.637 223.319 99.768 223.19 99.898 223.061 100.028 222.933 100.159 222.804 100.289 222.676 100.419 222.547 100.549 222.418 100.68 222.29 100.81 222.162 100.94 222.033 101.071 221.905 101.201 221.776 101.331 221.648 101.461 221.52 101.592 221.392 101.722 221.263 101.852 221.135 101.982 221.007 102.113 220.879 102.243 220.751 102.373 220.623 102.504 220.495 102.634 220.367 102.764 220.239 102.895 220.111 103.025 219.983 103.155 219.855 103.285 219.727 103.416 219.6 103.546 219.472 103.676 219.344 103.807 219.217 103.937 219.089 104.067 218.962 104.197 218.834 104.328 218.706 104.458 218.579 104.588 218.451 104.718 218.324 104.849 218.197 104.979 218.069 105.109 217.942 105.24 217.814 105.37 217.687 105.5 217.56 105.63 217.433 105.761 217.306 105.891 217.178 106.021 217.051 106.152 216.924 106.282 216.797 106.412 216.67 106.542 216.543 106.673 216.416 106.803 216.289 106.933 216.163 107.064 216.036 107.194 215.909 107.324 215.782 107.454 215.655 107.585 215.529 107.715 215.402 107.845 215.275 107.976 215.149 108.106 215.022 108.236 214.896 108.367 214.769 108.497 214.642 108.627 214.516 108.757 214.39 108.888 214.263 109.018 214.137 109.148 214.011 109.278 213.884 109.409 213.758 109.539 213.632 109.669 213.506 109.8 213.38 109.93 213.253 110.06 213.127 110.19 213.001 110.321 212.875 110.451 212.749 110.581 212.623 110.712 212.497 110.842 212.372 110.972 212.246 111.102 212.12 111.233 211.994 111.363 211.869 111.493 211.743 111.624 211.617 111.754 211.492 111.884 211.366 112.014 211.24 112.145 211.115 112.275 210.989 112.405 210.864 112.536 210.739 112.666 210.613 112.796 210.488 112.926 210.362 113.057 210.237 113.187 210.112 113.317 209.986 113.448 209.861 113.578 209.736 113.708 209.611 113.838 209.486 113.969 209.361 114.099 209.236 114.229 209.111 114.36 208.986 114.49 208.861 114.62 208.736 114.75 208.611 114.881 208.486 115.011 208.362 115.141 208.237 115.272 208.112 115.402 207.987 115.532 207.863 115.662 207.738 115.793 207.613 115.923 207.489 116.053 207.364 116.184 207.24 116.314 207.115 116.444 206.991 116.574 206.866 116.705 206.742 116.835 206.618 116.965 206.494 117.096 206.369 117.226 206.245 117.356 206.121 117.486 205.996 117.617 205.873 117.747 205.748 117.877 205.624 118.008 205.5 118.138 205.376 118.268 205.252 118.398 205.129 118.529 205.005 118.659 204.881 118.789 204.757 118.92 204.633 119.05 204.509 119.18 204.385 119.31 204.262 119.441 204.138 119.571 204.015 119.701 203.891 119.832 203.767 119.962 203.644 120.092 203.52 120.222 203.397 120.353 203.273 120.483 203.15 120.613 203.027 120.744 202.903 120.874 202.78 121.004 202.657 121.134 202.534 121.265 202.41 121.395 202.287 121.525 202.164 121.656 202.041 121.786 201.918 121.916 201.795 122.046 201.672 122.177 201.549 122.307 201.426 122.437 201.303 122.568 201.18 122.698 201.058 122.828 200.935 122.958 200.812 123.089 200.689 123.219 200.566 123.349 200.444 123.48 200.321 123.61 200.198 123.74 200.076 123.87 199.954 124.001 199.831 124.131 199.708 124.261 199.586 124.392 199.464 124.522 199.341 124.652 199.219 124.782 199.096 124.913 198.974 125.043 198.852 125.173 198.73 125.304 198.608 125.434 198.486 125.564 198.364 125.694 198.241 125.825 198.119 125.955 197.998 126.085 197.875 126.216 197.754 126.346 197.632 126.476 197.51 126.606 197.388 126.737 197.266 126.867 197.144 126.997 197.023 127.128 196.901 127.258 196.78 127.388 196.658 127.518 196.536 127.649 196.414 127.779 196.293 127.909 196.171 128.04 196.05 128.17 195.929 128.3 195.807 128.43 195.686 128.561 195.565 128.691 195.443 128.821 195.322 128.952 195.201 129.082 195.079 129.212 194.959 129.342 194.837 129.473 194.717 129.603 194.595 129.733 194.474 129.864 194.353 129.994 194.232 130.124 194.111 130.254 193.991 130.385 193.87 130.515 193.749 130.645 193.628 130.776 193.507 130.906 193.387 131.036 193.266 131.166 193.145 131.297 193.025 131.427 192.904 131.557 192.783 131.688 192.663 131.818 192.542 131.948 192.422 132.078 192.302 132.209 192.181 132.339 192.061 132.469 191.94 132.6 191.82 132.73 191.7 132.86 191.58 132.99 191.459 133.121 191.339 133.251 191.219 133.381 191.099 133.512 190.979 133.642 190.859 133.772 190.739 133.902 190.619 134.033 190.499 134.163 190.379 134.293 190.259 134.424 190.139 134.554 190.02 134.684 189.9 134.814 189.78 134.945 189.661 135.075 189.541 135.205 189.422 135.336 189.302 135.466 189.182 135.596 189.063 135.726 188.943 135.857 188.824 135.987 188.704 136.117 188.585 136.248 188.465 136.378 188.346 136.508 188.227 136.638 188.108 136.769 187.988 136.899 187.869 137.029 187.75 137.16 187.631 137.29 187.512 137.42 187.393 137.55 187.274 137.681 187.155 137.811 187.036 137.941 186.917 138.072 186.798 138.202 186.679 138.332 186.56 138.462 186.442 138.593 186.323 138.723 186.204 138.853 186.086 138.984 185.967 139.114 185.848 139.244 185.73 139.374 185.611 139.505 185.492 139.635 185.374 139.765 185.255 139.896 185.137 140.026 185.019 140.156 184.901 140.286 184.782 140.417 184.664 140.547 184.546 140.677 184.427 140.808 184.309 140.938 184.191 141.068 184.073 141.198 183.955 141.329 183.837 141.459 183.719 141.589 183.601 141.72 183.483 141.85 183.365 141.98 183.247 142.11 183.129 142.241 183.011 142.371 182.894 142.501 182.776 142.632 182.658 142.762 182.54 142.892 182.423 143.022 182.305 143.153 182.188 143.283 182.07 143.413 181.952 143.544 181.835 143.674 181.718 143.804 181.6 143.934 181.483 144.065 181.365 144.195 181.248 144.325 181.131 144.456 181.013 144.586 180.896 144.716 180.779 144.846 180.662 144.977 180.545 145.107 180.428 145.237 180.311 145.367 180.194 145.498 180.077 145.628 179.96 145.758 179.843 145.889 179.726 146.019 179.609 146.149 179.492 146.28 179.375 146.41 179.259 146.54 179.142 146.67 179.025 146.801 178.909 146.931 178.792 147.061 178.676 147.192 178.559 147.322 178.442 147.452 178.326 147.582 178.21 147.713 178.093 147.843 177.977 147.973 177.86 148.103 177.744 148.234 177.628 148.364 177.512 148.494 177.395 148.625 177.279 148.755 177.163 148.885 177.047 149.016 176.931 149.146 176.815 149.276 176.699 149.406 176.583 149.537 176.467 149.667 176.351 149.797 176.235 149.928 176.119 150.058 176.003 150.188 175.888 150.318 175.772 150.449 175.656 150.579 175.541 150.709 175.425 150.839 175.309 150.97 175.194 151.1 175.078 151.23 174.962 151.361 174.847 151.491 174.732 151.621 174.616 151.751 174.501 151.882 174.386 152.012 174.27 152.142 174.155 152.273 174.04 152.403 173.924 152.533 173.809 152.663 173.694 152.794 173.579 152.924 173.464 153.054 173.349 153.185 173.234 153.315 173.119 153.445 173.004 153.575 172.889 153.706 172.774 153.836 172.659 153.966 172.544 154.097 172.43 154.227 172.315 154.357 172.2 154.487 172.086 154.618 171.971 154.748 171.857 154.878 171.742 155.009 171.627 155.139 171.513 155.269 171.398 155.399 171.284 155.53 171.17 155.66 171.055 155.79 170.941 155.921 170.826 156.051 170.712 156.181 170.598 156.311 170.484 156.442 170.369 156.572 170.255 156.702 170.141 156.833 170.027 156.963 169.913 157.093 169.799 157.223 169.685 157.354 169.571 157.484 169.457 157.614 169.343 157.745 169.229 157.875 169.116 158.005 169.002 158.135 168.888 158.266 168.775 158.396 168.661 158.526 168.547 158.657 168.434 158.787 168.32 158.917 168.206 159.047 168.093 159.178 167.98 159.308 167.866 159.438 167.753 159.569 167.639 159.699 167.526 159.829 167.413 159.959 167.3 160.09 167.186 160.22 167.073 160.35 166.96 160.481 166.847 160.611 166.733 160.741 166.621 160.871 166.508 161.002 166.394 161.132 166.281 161.262 166.169 161.393 166.055 161.523 165.943 161.653 165.83 161.783 165.717 161.914 165.604 162.044 165.491 162.174 165.379 162.305 165.266 162.435 165.154 162.565 165.041 162.695 164.928 162.826 164.816 162.956 164.703 163.086 164.591 163.217 164.478 163.347 164.366 163.477 164.254 163.607 164.141 163.738 164.029 163.868 163.917 163.998 163.805 164.129 163.692 164.259 163.58 164.389 163.468 164.519 163.356 164.65 163.244 164.78 163.132 164.91 163.02 165.041 162.908 165.171 162.796 165.301 162.684 165.431 162.572 165.562 162.46 165.692 162.348 165.822 162.237 165.953 162.125 166.083 162.013 166.213 161.902 166.343 161.79 166.474 161.678 166.604 161.567 166.734 161.455 166.865 161.344 166.995 161.232 167.125 161.121 167.255 161.009 167.386 160.898 167.516 160.787 167.646 160.676 167.777 160.564 167.907 160.453 168.037 160.342 168.167 160.231 168.298 160.119 168.428 160.008 168.558 159.897 168.689 159.786 168.819 159.675 168.949 159.564 169.079 159.453 169.21 159.342 169.34 159.232 169.47 159.121 169.601 159.01 169.731 158.899 169.861 158.789 169.991 158.678 170.122 158.567 170.252 158.456 170.382 158.346 170.513 158.235 170.643 158.125 170.773 158.014 170.903 157.904 171.034 157.793 171.164 157.683 171.294 157.573 171.425 157.462 171.555 157.352 171.685 157.242 171.815 157.131 171.946 157.021 172.076 156.911 172.206 156.801 172.337 156.691 172.467 156.581 172.597 156.471 172.727 156.361 172.858 156.251 172.988 156.141 173.118 156.031 173.249 155.921 173.379 155.811 173.509 155.702 173.639 155.592 173.77 155.482 173.9 155.372 174.03 155.263 174.161 155.153 174.291 155.043 174.421 154.934 174.551 154.824 174.682 154.715 174.812 154.605 174.942 154.496 175.073 154.386 175.203 154.277 175.333 154.168 175.463 154.058 175.594 153.949 175.724 153.84 175.854 153.731 175.985 153.622 176.115 153.512 176.245 153.404 176.375 153.294 176.506 153.185 176.636 153.076 176.766 152.967 176.897 152.858 177.027 152.75 177.157 152.641 177.287 152.532 177.418 152.423 177.548 152.314 177.678 152.206 177.809 152.097 177.939 151.988 178.069 151.88 178.199 151.771 178.33 151.662 178.46 151.554 178.59 151.445 178.721 151.337 178.851 151.229 178.981 151.12 179.111 151.012 179.242 150.903 179.372 150.795 179.502 150.687 179.633 150.579 179.763 150.47 179.893 150.363 180.023 150.254 180.154 150.146 180.284 150.038 180.414 149.93 180.545 149.822 180.675 149.714 180.805 149.606 180.935 149.498 181.066 149.391 181.196 149.283 181.326 149.175 181.457 149.067 181.587 148.959 181.717 148.852 181.847 148.744 181.978 148.636 182.108 148.529 182.238 148.421 182.369 148.314 182.499 148.206 182.629 148.099 182.759 147.991 182.89 147.884 183.02 147.777 183.15 147.669 183.281 147.562 183.411 147.455 183.541 147.348 183.671 147.24 183.802 147.133 183.932 147.026 184.062 146.919 184.193 146.812 184.323 146.705 184.453 146.598 184.583 146.491 184.714 146.384 184.844 146.277 184.974 146.17 185.105 146.064 185.235 145.956 185.365 145.85 185.495 145.743 185.626 145.636 185.756 145.53 185.886 145.423 186.017 145.317 186.147 145.21 186.277 145.104 186.407 144.997 186.538 144.891 186.668 144.784 186.798 144.678 186.929 144.571 187.059 144.465 187.189 144.359 187.319 144.252 187.45 144.146 187.58 144.04 187.71 143.934 187.84 143.828 187.971 143.722 188.101 143.616 188.231 143.51 188.362 143.403 188.492 143.298 188.622 143.192 188.753 143.086 188.883 142.98 189.013 142.874 189.143 142.768 189.274 142.663 189.404 142.557 189.534 142.451 189.665 142.346 189.795 142.24 189.925 142.134 190.055 142.029 190.186 141.923 190.316 141.818 190.446 141.712 190.577 141.607 190.707 141.501 190.837 141.396 190.967 141.291 191.098 141.186 191.228 141.08 191.358 140.975 191.488 140.87 191.619 140.765 191.749 140.66 191.879 140.555 192.01 140.45 192.14 140.344 192.27 140.24 192.4 140.135 192.531 140.03 192.661 139.925 192.791 139.82 192.922 139.715 193.052 139.61 193.182 139.506 193.313 139.401 193.443 139.296 193.573 139.191 193.703 139.087 193.834 138.982 193.964 138.878 194.094 138.773 194.224 138.669 194.355 138.564 194.485 138.46 194.615 138.355 194.746 138.251 194.876 138.147 195.006 138.042 195.136 137.938 195.267 137.834 195.397 137.73 195.527 137.626 195.658 137.522 195.788 137.418 195.918 137.313 196.048 137.209 196.179 137.106 196.309 137.001 196.439 136.898 196.57 136.794 196.7 136.69 196.83 136.586 196.96 136.482 197.091 136.379 197.221 136.275 197.351 136.171 197.482 136.068 197.612 135.964 197.742 135.86 197.872 135.757 198.003 135.653 198.133 135.55 198.263 135.446 198.394 135.343 198.524 135.24 198.654 135.136 198.784 135.033 198.915 134.93 199.045 134.826 199.175 134.723 199.306 134.62 199.436 134.517 199.566 134.414 199.696 134.31 199.827 134.208 199.957 134.104 200.087 134.001 200.218 133.899 200.348 133.796 200.478 133.693 200.608 133.59 200.739 133.487 200.869 133.384 200.999 133.281 201.13 133.179 201.26 133.076 201.39 132.974 201.52 132.871 201.651 132.768 201.781 132.666 201.911 132.563 202.042 132.461 202.172 132.358 202.302 132.256 202.432 132.153 202.563 132.051 202.693 131.949 202.823 131.847 202.954 131.744 203.084 131.642 203.214 131.54 203.344 131.438 203.475 131.336 203.605 131.234 203.735 131.132 203.866 131.03 203.996 130.928 204.126 130.826 204.256 130.724 204.387 130.622 204.517 130.52 204.647 130.418 204.778 130.317 204.908 130.215 205.038 130.113 205.168 130.011 205.299 129.909 205.429 129.808 205.559 129.706 205.69 129.605 205.82 129.504 205.95 129.402 206.08 129.3 206.211 129.199 206.341 129.098 206.471 128.996 206.602 128.895 206.732 128.794 206.862 128.692 206.992 128.591 207.123 128.49 207.253 128.389 207.383 128.288 207.514 128.187 207.644 128.086 207.774 127.985 207.904 127.884 208.035 127.783 208.165 127.682 208.295 127.581 208.426 127.48 208.556 127.38 208.686 127.278 208.816 127.178 208.947 127.077 209.077 126.976 209.207 126.876 209.338 126.775 209.468 126.675 209.598 126.574 209.728 126.474 209.859 126.373 209.989 126.273 210.119 126.172 210.25 126.072 210.38 125.972 210.51 125.871 210.64 125.771 210.771 125.671 210.901 125.571 211.031 125.47 211.162 125.37 211.292 125.27 211.422 125.17 211.552 125.07 211.683 124.97 211.813 124.87 211.943 124.77 212.074 124.67 212.204 124.57 212.334 124.47 212.464 124.371 212.595 124.271 212.725 124.171 212.855 124.071 212.986 123.972 213.116 123.872 213.246 123.772 213.376 123.673 213.507 123.573 213.637 123.474 213.767 123.375 213.898 123.275 214.028 123.176 214.158 123.076 214.288 122.977 214.419 122.877 214.549 122.778 214.679 122.679 214.81 122.58 214.94 122.481 215.07 122.382 215.2 122.283 215.331 122.183 215.461 122.084 215.591 121.985 215.722 121.886 215.852 121.788 215.982 121.689 216.112 121.59 216.243 121.491 216.373 121.392 216.503 121.293 216.634 121.194 216.764 121.096 216.894 120.997 217.024 120.898 217.155 120.8 217.285 120.701 217.415 120.603 217.546 120.504 217.676 120.406 217.806 120.307 217.936 120.209 218.067 120.111 218.197 120.012 218.327 119.914 218.458 119.816 218.588 119.718 218.718 119.619 218.848 119.521 218.979 119.423 219.109 119.325 219.239 119.227 219.37 119.129 219.5 119.031 219.63 118.933 219.76 118.835 219.891 118.737 220.021 118.639 220.151 118.541 220.282 118.443 220.412 118.346 220.542 118.248 220.672 118.15 220.803 118.053 220.933 117.955 221.063 117.857 221.194 117.76 221.324 117.662 221.454 117.565 221.584 117.467 221.715 117.37 221.845 117.272 221.975 117.175 222.106 117.078 222.236 116.98 222.366 116.883 222.496 116.786 222.627 116.688 222.757 116.592 222.887 116.494 223.018 116.397 223.148 116.3 223.278 116.203 223.408 116.106 223.539 116.009 223.669 115.912 223.799 115.815 223.93 115.719 224.06 115.622 224.19 115.525 224.32 115.428 224.451 115.331 224.581 115.235 224.711 115.138 224.842 115.041 224.972 114.945 225.102 114.848 225.232 114.752 225.363 114.655 225.493 114.559 225.623 114.462 225.754 114.366 225.884 114.27 226.014 114.173 226.144 114.077 226.275 113.981 226.405 113.884 226.535 113.788 226.666 113.692 226.796 113.596 226.926 113.5 227.056 113.404 227.187 113.308 227.317 113.212 227.447 113.116 227.578 113.02 227.708 112.924 227.838 112.828 227.968 112.732 228.099 112.636 228.229 112.541 228.359 112.445 228.49 112.349 228.62 112.254 228.75 112.158 228.88 112.062 229.011 111.967 229.141 111.871 229.271 111.776 229.402 111.68 229.532 111.585 229.662 111.489 229.792 111.394 229.923 111.299 230.053 111.204 230.183 111.108 230.314 111.013 230.444 110.918 230.574 110.823 230.704 110.727 230.835 110.632 230.965 110.537 231.095 110.442 231.226 110.347 231.356 110.252 231.486 110.157 231.616 110.063 231.747 109.968 231.877 109.873 232.007 109.778 232.138 109.684 232.268 109.589 232.398 109.494 232.528 109.399 232.659 109.305 232.789 109.21 232.919 109.116 233.049 109.021 233.18 108.927 233.31 108.832 233.44 108.738 233.571 108.643 233.701 108.549 233.831 108.454 233.962 108.36 234.092 108.266 234.222 108.171 234.352 108.078 234.483 107.983 234.613 107.889 234.743 107.795 234.873 107.701 235.004 107.607 235.134 107.513 235.264 107.419 235.395 107.325 235.525 107.231 235.655 107.137 235.786 107.044 235.916 106.95 236.046 106.856 236.176 106.762 236.307 106.669 236.437 106.575 236.567 106.481 236.697 106.388 236.828 106.294 236.958 106.201 237.088 106.107 237.219 106.014 237.349 105.92 237.479 105.827 237.609 105.733 237.74 105.64 237.87 105.547 238 105.454 238.131 105.361 238.261 105.267 238.391 105.174 238.521 105.081 238.652 104.988 238.782 104.895 238.912 104.802 239.043 104.709 239.173 104.616 239.303 104.523 239.433 104.43 239.564 104.337 239.694 104.245 239.824 104.152 239.955 104.059 240.085 103.966 240.215 103.873 240.345 103.781 240.476 103.688 240.606 103.596 240.736 103.503 240.867 103.411 240.997 103.318 241.127 103.225 241.257 103.133 241.388 103.041 241.518 102.949 241.648 102.856 241.779 102.764 241.909 102.672 242.039 102.579 242.169 102.487 242.3 102.395 242.43 102.303 242.56 102.211 242.691 102.119 242.821 102.027 242.951 101.935 243.081 101.843 243.212 101.751 243.342 101.659 243.472 101.567 243.603 101.475 243.733 101.383 243.863 101.292 243.993 101.2 244.124 101.108 244.254 101.017 244.384 100.925 244.515 100.834 244.645 100.742 244.775 100.651 244.905 100.559 245.036 100.468 245.166 100.376 245.296 100.285 245.427 100.193 245.557 100.102 245.687 100.011 245.817 99.919 245.948 99.828 246.078 99.737 246.208 99.646 246.339 99.555 246.469 99.464 246.599 99.373 246.729 99.282 246.86 99.19 246.99 99.1 247.12 99.009 247.251 98.918 247.381 98.827 247.511 98.736 247.641 98.645 247.772 98.555 247.902 98.464 248.032 98.373 248.163 98.283 248.293 98.192 248.423 98.101 248.553 98.011 248.684 97.92 248.814 97.83 248.944 97.739 249.075 97.649 249.205 97.558 249.335 97.468 249.465 97.378 249.596 97.288 249.726 97.198 249.856 97.107 249.987 97.017 250.117 96.927 250.247 96.837 250.377 96.747 250.508 96.657 250.638 96.567 250.768 96.477 250.899 96.387 251.029 96.297 251.159 96.207 251.289 96.117 251.42 96.027 251.55 95.938 251.68 95.848 251.811 95.758 251.941 95.668 252.071 95.578 252.201 95.489 252.332 95.399 252.462 95.31 252.592 95.221 252.723 95.131 252.853 95.041 252.983 94.952 253.113 94.863 253.244 94.773 253.374 94.684 253.504 94.595 253.635 94.505 253.765 94.416 253.895 94.327 254.025 94.238 254.156 94.149 254.286 94.06 254.416 93.971 254.547 93.882 254.677 93.793 254.807 93.704 254.937 93.615 255.068 93.526 255.198 93.437 255.328 93.348 255.459 93.259 255.589 93.171 255.719 93.082 255.849 92.993 255.98 92.905 256.11 92.816 256.24 92.728 256.371 92.639 256.501 92.551 256.631 92.462 256.761 92.374 256.892 92.285 257.022 92.197 257.152 92.108 257.283 92.02 257.413 91.932 257.543 91.843 257.673 91.755 257.804 91.667 257.934 91.579 258.064 91.491 258.195 91.403 258.325 91.315 258.455 91.227 258.585 91.139 258.716 91.051 258.846 90.963 258.976 90.875 259.107 90.787 259.237 90.7 259.367 90.612 259.497 90.524 259.628 90.436 259.758 90.349 259.888 90.261 260.019 90.173 260.149 90.086 260.279 89.998 260.409 89.911 260.54 89.823 260.67 89.736 260.8 89.648 260.931 89.561 261.061 89.473 261.191 89.386 261.321 89.299 261.452 89.212 261.582 89.125 261.712 89.038 261.843 88.95 261.973 88.863 262.103 88.776 262.233 88.689 262.364 88.602 262.494 88.515 262.624 88.428 262.755 88.341 262.885 88.254 263.015 88.168 263.145 88.081 263.276 87.994 263.406 87.907 263.536 87.82 263.667 87.734 263.797 87.647 263.927 87.56 264.057 87.474 264.188 87.388 264.318 87.301 264.448 87.214 264.579 87.128 264.709 87.042 264.839 86.955 264.969 86.869 265.1 86.782 265.23 86.696 265.36 86.61 265.491 86.524 265.621 86.437 265.751 86.351 265.881 86.266 266.012 86.179 266.142 86.093 266.272 86.007 266.403 85.921 266.533 85.835 266.663 85.75 266.793 85.663 266.924 85.578 267.054 85.492 267.184 85.406 267.315 85.321 267.445 85.235 267.575 85.149 267.705 85.063 267.836 84.978 267.966 84.892 268.096 84.807 268.227 84.721 268.357 84.636 268.487 84.55 268.617 84.465 268.748 84.379 268.878 84.294 269.008 84.209 269.139 84.124 269.269 84.038 269.399 83.953 269.529 83.868 269.66 83.783 269.79 83.698 269.92 83.613 270.051 83.527 270.181 83.443 270.311 83.358 270.441 83.273 270.572 83.188 270.702 83.103 270.832 83.018 270.963 82.933 271.093 82.849 271.223 82.764 271.353 82.679 271.484 82.594 271.614 82.51 271.744 82.425 271.875 82.341 272.005 82.256 272.135 82.171 272.265 82.087 272.396 82.003 272.526 81.918 272.656 81.834 272.786 81.75 272.917 81.665 273.047 81.581 273.177 81.497 273.308 81.412 273.438 81.328 273.568 81.244 273.699 81.16 273.829 81.076 273.959 80.992 274.089 80.908 274.22 80.824 274.35 80.74 274.48 80.656 274.611 80.572 274.741 80.488 274.871 80.405 275.001 80.321 275.132 80.237 275.262 80.154 275.392 80.07 275.523 79.986 275.653 79.903 275.783 79.819 275.913 79.735 276.044 79.652 276.174 79.569 276.304 79.485 276.435 79.402 276.565 79.318 276.695 79.235 276.825 79.152 276.956 79.069 277.086 78.985 277.216 78.902 277.346 78.819 277.477 78.736 277.607 78.652 277.737 78.57 277.868 78.487 277.998 78.403 278.128 78.321 278.258 78.238 278.389 78.155 278.519 78.072 278.649 77.989 278.78 77.906 278.91 77.824 279.04 77.741 279.171 77.658 279.301 77.575 279.431 77.493 279.561 77.41 279.692 77.328 279.822 77.245 279.952 77.163 280.082 77.08 280.213 76.998 280.343 76.915 280.473 76.833 280.604 76.75 280.734 76.668 280.864 76.586 280.995 76.504 281.125 76.422 281.255 76.339 281.385 76.257 281.516 76.175 281.646 76.093 281.776 76.011 281.906 75.929 282.037 75.847 282.167 75.765 282.297 75.683 282.428 75.601 282.558 75.52 282.688 75.438 282.818 75.356 282.949 75.274 283.079 75.193 283.209 75.111 283.34 75.029 283.47 74.948 283.6 74.866 283.73 74.785 283.861 74.703 283.991 74.622 284.121 74.54 284.252 74.459 284.382 74.377 284.512 74.296 284.642 74.215 284.773 74.134 284.903 74.053 285.033 73.971 285.164 73.89 285.294 73.809 285.424 73.728 285.554 73.647 285.685 73.566 285.815 73.485 285.945 73.404 286.076 73.323 286.206 73.242 286.336 73.161 286.466 73.08 286.597 73 286.727 72.919 286.857 72.838 286.988 72.757 287.118 72.677 287.248 72.596 287.378 72.515 287.509 72.435 287.639 72.354 287.769 72.274 287.9 72.193 288.03 72.113 288.16 72.033 288.29 71.952 288.421 71.872 288.551 71.791 288.681 71.711 288.812 71.631 288.942 71.551 289.072 71.471 289.202 71.391 289.333 71.311 289.463 71.23 289.593 71.15 289.724 71.071 289.854 70.99 289.984 70.911 290.114 70.831 290.245 70.751 290.375 70.671 290.505 70.591 290.636 70.511 290.766 70.432 290.896 70.352 291.026 70.273 291.157 70.193 291.287 70.113 291.417 70.033 291.548 69.954 291.678 69.874 291.808 69.795 291.938 69.716 292.069 69.636 292.199 69.557 292.329 69.478 292.46 69.398 292.59 69.319 292.72 69.24 292.85 69.161 292.981 69.082 293.111 69.002 293.241 68.923 293.372 68.844 293.502 68.765 293.632 68.686 293.762 68.607 293.893 68.528 294.023 68.449 294.153 68.371 294.284 68.292 294.414 68.213 294.544 68.134 294.674 68.056 294.805 67.977 294.935 67.898 295.065 67.819 295.196 67.741 295.326 67.663 295.456 67.584 295.586 67.505 295.717 67.427 295.847 67.348 295.977 67.27 296.108 67.192 296.238 67.114 296.368 67.035 296.498 66.957 296.629 66.879 296.759 66.801 296.889 66.722 297.02 66.644 297.15 66.566 297.28 66.488 297.41 66.41 297.541 66.332 297.671 66.254 297.801 66.176 297.932 66.098 298.062 66.021 298.192 65.943 298.322 65.865 298.453 65.787 298.583 65.71 298.713 65.632 298.844 65.554 298.974 65.477 299.104 65.399 299.234 65.321 299.365 65.244 299.495 65.166 299.625 65.089 299.756 65.012 299.886 64.934 300.016 64.857 300.146 64.78 300.277 64.702 300.407 64.625 300.537 64.548 300.668 64.471 300.798 64.393 300.928 64.316 301.058 64.239 301.189 64.162 301.319 64.085 301.449 64.008 301.58 63.931 301.71 63.854 301.84 63.777 301.97 63.701 302.101 63.624 302.231 63.547 302.361 63.47 302.492 63.394 302.622 63.317 302.752 63.24 302.882 63.164 303.013 63.087 303.143 63.01 303.273 62.934 303.404 62.858 303.534 62.781 303.664 62.705 303.794 62.628 303.925 62.552 304.055 62.476 304.185 62.399 304.316 62.323 304.446 62.247 304.576 62.171 304.706 62.094 304.837 62.018 304.967 61.942 305.097 61.866 305.228 61.79 305.358 61.714 305.488 61.638 305.618 61.562 305.749 61.486 305.879 61.411 306.009 61.335 306.14 61.259 306.27 61.183 306.4 61.108 306.53 61.032 306.661 60.956 306.791 60.881 306.921 60.805 307.052 60.73 307.182 60.654 307.312 60.578 307.442 60.503 307.573 60.428 307.703 60.352 307.833 60.277 307.964 60.202 308.094 60.126 308.224 60.051 308.354 59.976 308.485 59.901 308.615 59.825 308.745 59.75 308.876 59.675 309.006 59.6 309.136 59.525 309.266 59.45 309.397 59.375 309.527 59.3 309.657 59.225 309.788 59.151 309.918 59.076 310.048 59.001 310.178 58.926 310.309 58.852 310.439 58.777 310.569 58.703 310.7 58.628 310.83 58.553 310.96 58.479 311.09 58.404 311.221 58.33 311.351 58.255 311.481 58.181 311.612 58.106 311.742 58.032 311.872 57.958 312.002 57.884 312.133 57.809 312.263 57.735 312.393 57.661 312.524 57.587 312.654 57.512 312.784 57.439 312.914 57.365 313.045 57.29 313.175 57.217 313.305 57.143 313.436 57.069 313.566 56.995 313.696 56.921 313.826 56.847 313.957 56.773 314.087 56.699 314.217 56.626 314.348 56.552 314.478 56.479 314.608 56.405 314.738 56.331 314.869 56.258 314.999 56.184 315.129 56.111 315.26 56.037 315.39 55.964 315.52 55.891 315.65 55.817 315.781 55.744 315.911 55.671 316.041 55.598 316.172 55.524 316.302 55.451 316.432 55.378 316.562 55.305 316.693 55.232 316.823 55.159 316.953 55.086 317.083 55.013 317.214 54.94 317.344 54.867 317.474 54.794 317.605 54.721 317.735 54.648 317.865 54.575 317.996 54.503 318.126 54.43 318.256 54.357 318.386 54.285 318.517 54.212 318.647 54.14 318.777 54.067 318.908 53.995 319.038 53.922 319.168 53.85 319.298 53.777 319.429 53.705 319.559 53.633 319.689 53.56 319.819 53.488 319.95 53.416 320.08 53.344 320.21 53.271 320.341 53.199 320.471 53.127 320.601 53.055 320.732 52.983 320.862 52.911 320.992 52.839 321.122 52.767 321.253 52.695 321.383 52.623 321.513 52.552 321.643 52.48 321.774 52.408 321.904 52.336 322.034 52.265 322.165 52.193 322.295 52.121 322.425 52.049 322.555 51.978 322.686 51.906 322.816 51.835 322.946 51.764 323.077 51.692 323.207 51.621 323.337 51.549 323.467 51.478 323.598 51.407 323.728 51.335 323.858 51.264 323.989 51.193 324.119 51.122 324.249 51.05 324.379 50.98 324.51 50.909 324.64 50.837 324.77 50.766 324.901 50.696 325.031 50.624 325.161 50.554 325.291 50.483 325.422 50.412 325.552 50.341 325.682 50.27 325.813 50.2 325.943 50.129 326.073 50.058 326.203 49.988 326.334 49.917 326.464 49.847 326.594 49.776 326.725 49.706 326.855 49.635 326.985 49.565 327.115 49.494 327.246 49.424 327.376 49.353 327.506 49.283 327.637 49.213 327.767 49.142 327.897 49.073 328.027 49.002"/><rect class="cls-1" x="97.714" y="3.429" width="282.428" height="42"/><path class="cls-4" d="M327.907,152.93a2.2,2.2,0,1,0-2.2,2.2,2.2,2.2,0,0,0,2.2-2.2Z" transform="translate(-210 -140.276)"/><path class="cls-4" d="M325.707,150.98a1.95,1.95,0,0,1,1.95,1.95h0a1.95,1.95,0,1,1-1.95-1.95Zm0-.5a2.45,2.45,0,1,0,2.451,2.45h0a2.451,2.451,0,0,0-2.451-2.45Z" transform="translate(-210 -140.276)"/><line class="cls-5" x1="100.713" y1="32.34" x2="130.701" y2="32.34"/><rect class="cls-6" x="97.714" y="3.429" width="282.428" height="42"/><text class="cls-7" transform="translate(49.997 287.244)">0</text><text class="cls-7" transform="translate(115.14 287.244)">5</text><text class="cls-7" transform="translate(175.854 287.244)">10</text><text class="cls-7" transform="translate(240.997 287.244)">15</text><text class="cls-7" transform="translate(306.14 287.244)">20</text><text class="cls-7" transform="translate(371.283 287.244)">25</text><text class="cls-8" transform="translate(144.092 306.213)">气流速率 <tspan class="cls-9" x="72" y="0">v</tspan></text><text class="cls-7" transform="translate(224.154 311.541) scale(0.583)">p</text><text class="cls-7" transform="translate(229.342 306.213)"><tspan xml:space="preserve"> / (m·s</tspan></text><text class="cls-7" transform="translate(275.576 300.885) scale(0.583)">-1</text><text class="cls-7" transform="translate(283.839 306.213)">)</text><text class="cls-8" transform="translate(26.307 218.563) rotate(-90)">钢球所受风力 <tspan class="cls-9" x="104" y="0">F</tspan></text><text class="cls-7" transform="translate(31.635 105.977) rotate(-90) scale(0.583)">p</text><text class="cls-7" transform="translate(26.307 100.789) rotate(-90)"><tspan xml:space="preserve"> / N</tspan></text><text class="cls-7" transform="translate(39.39 275.749)">0</text><text class="cls-7" transform="translate(39.39 240.546)">1</text><text class="cls-7" transform="translate(39.39 205.34)">2</text><text class="cls-7" transform="translate(39.39 170.136)">3</text><text class="cls-7" transform="translate(39.39 134.933)">4</text><text class="cls-7" transform="translate(39.39 99.73)">5</text><text class="cls-7" transform="translate(39.39 64.526)">6</text><text class="cls-7" transform="translate(39.39 29.323)">7</text><text class="cls-10" transform="translate(54.485 18.541)">×10</text><text class="cls-10" transform="translate(76.346 14.545) scale(0.583)">-3</text><text class="cls-11" transform="translate(132.95 17.367)">实验数据点</text><text class="cls-11" transform="translate(132.855 36.001)">拟合曲线 <tspan class="cls-9" x="54" y="0">F</tspan></text><text class="cls-10" transform="translate(193.295 39.997) scale(0.583)">p</text><text class="cls-10" transform="translate(197.186 36.001)">(v</text><text class="cls-12" transform="translate(208.213 39.997) scale(0.583)">p</text><text class="cls-10" transform="translate(212.104 36.001)">) = -4.746×10</text><text class="cls-10" transform="translate(286.219 32.005) scale(0.583)">-6</text><text class="cls-10" transform="translate(292.416 36.001)">v</text><text class="cls-10" transform="translate(298.463 39.997) scale(0.583)">p<tspan x="6.673" y="-13.709">2</tspan></text><text class="cls-10" transform="translate(306.228 36.001)">+0.000398v</text><text class="cls-10" transform="translate(370.212 39.997) scale(0.583)">p</text></svg>