<svg id="图层_1" data-name="图层 1" xmlns="http://www.w3.org/2000/svg" viewBox="0 0 955.706 354.761"><defs><style>.cls-1{fill:#fff;}.cls-2,.cls-3,.cls-4,.cls-6{fill:none;}.cls-2{stroke:#dfdfdf;}.cls-2,.cls-3,.cls-4{stroke-linejoin:round;}.cls-2,.cls-3,.cls-6{stroke-width:0.5px;}.cls-3,.cls-6{stroke:#262626;}.cls-3{stroke-linecap:square;}.cls-4{stroke:#ce521c;stroke-width:4.001px;}.cls-5{fill:#076cb0;}.cls-6{stroke-miterlimit:10;}.cls-7,.cls-8{font-size:16px;fill:#231815;}.cls-10,.cls-7,.cls-9{font-family:CambriaMath, Cambria Math;}.cls-8{font-family:SimSun, SimSun;}.cls-10{letter-spacing:-0.017em;}</style></defs><title>飓风球(19mm)转速与气流速率的关系</title><rect class="cls-1" width="955.706" height="314.999"/><rect class="cls-1" y="0.75" width="955.706" height="314.999"/><rect class="cls-1" x="124.34" y="23.571" width="740.897" height="245.999"/><path class="cls-2" d="M66.34,409.846v-246m92.613,246v-246m92.612,246v-246m92.612,246v-246m92.612,246v-246m92.612,246v-246m92.612,246v-246m92.612,246v-246m92.613,246v-246m0,246H66.34m740.9-30.75H66.34m740.9-30.75H66.34m740.9-30.75H66.34m740.9-30.749H66.34m740.9-30.75H66.34m740.9-30.75H66.34m740.9-30.75H66.34m740.9-30.75H66.34" transform="translate(58 -140.276)"/><path class="cls-3" d="M66.34,409.846h740.9m-740.9-246h740.9m-740.9,246V402.44m92.613,7.406V402.44m92.612,7.406V402.44m92.612,7.406V402.44m92.612,7.406V402.44m92.612,7.406V402.44m92.612,7.406V402.44m92.612,7.406V402.44m92.613,7.406V402.44M66.34,163.847v7.406m92.613-7.406v7.406m92.612-7.406v7.406m92.612-7.406v7.406m92.612-7.406v7.406m92.612-7.406v7.406m92.612-7.406v7.406m92.612-7.406v7.406m92.613-7.406v7.406" transform="translate(58 -140.276)"/><path class="cls-3" d="M66.34,409.846v-246m740.9,246v-246m-740.9,246h7.409M66.34,379.1h7.409m-7.409-30.75h7.409M66.34,317.6h7.409M66.34,286.847h7.409M66.34,256.1h7.409m-7.409-30.75h7.409M66.34,194.6h7.409m-7.409-30.75h7.409m733.489,246h-7.409m7.409-30.75h-7.409m7.409-30.75h-7.409m7.409-30.75h-7.409m7.409-30.749h-7.409m7.409-30.75h-7.409m7.409-30.75h-7.409m7.409-30.75h-7.409m7.409-30.75h-7.409" transform="translate(58 -140.276)"/><polyline class="cls-4" points="179.908 238.903 180.834 238.735 181.76 238.568 182.686 238.401 183.612 238.233 184.538 238.067 185.464 237.9 186.391 237.733 187.317 237.567 188.243 237.4 189.169 237.234 190.095 237.067 191.021 236.901 191.947 236.734 192.873 236.568 193.799 236.401 194.726 236.234 195.652 236.067 196.578 235.9 197.504 235.733 198.43 235.566 199.356 235.399 200.282 235.23 201.208 235.063 202.135 234.895 203.061 234.727 203.987 234.558 204.913 234.39 205.839 234.22 206.765 234.052 207.691 233.882 208.617 233.712 209.544 233.542 210.47 233.372 211.396 233.201 212.322 233.03 213.248 232.859 214.174 232.688 215.1 232.516 216.026 232.344 216.953 232.171 217.879 231.998 218.805 231.825 219.731 231.652 220.657 231.478 221.583 231.304 222.509 231.129 223.435 230.954 224.362 230.779 225.288 230.603 226.214 230.427 227.14 230.25 228.066 230.073 228.992 229.896 229.918 229.718 230.844 229.54 231.771 229.362 232.697 229.183 233.623 229.003 234.549 228.824 235.475 228.644 236.401 228.463 237.327 228.282 238.253 228.101 239.179 227.919 240.106 227.737 241.032 227.554 241.958 227.371 242.884 227.188 243.81 227.004 244.736 226.819 245.662 226.635 246.588 226.45 247.515 226.264 248.441 226.078 249.367 225.892 250.293 225.705 251.219 225.517 252.145 225.33 253.071 225.141 253.997 224.953 254.924 224.764 255.85 224.574 256.776 224.384 257.702 224.194 258.628 224.003 259.554 223.812 260.48 223.62 261.406 223.428 262.333 223.236 263.259 223.043 264.185 222.849 265.111 222.655 266.037 222.461 266.963 222.267 267.889 222.072 268.815 221.876 269.741 221.68 270.668 221.484 271.594 221.287 272.52 221.09 273.446 220.892 274.372 220.694 275.298 220.495 276.224 220.297 277.15 220.097 278.077 219.898 279.003 219.697 279.929 219.497 280.855 219.296 281.781 219.095 282.707 218.893 283.633 218.691 284.559 218.488 285.486 218.285 286.412 218.082 287.338 217.878 288.264 217.674 289.19 217.47 290.116 217.265 291.042 217.06 291.968 216.854 292.895 216.648 293.821 216.441 294.747 216.234 295.673 216.027 296.599 215.819 297.525 215.611 298.451 215.403 299.377 215.194 300.303 214.985 301.23 214.776 302.156 214.566 303.082 214.356 304.008 214.145 304.934 213.934 305.86 213.723 306.786 213.511 307.712 213.299 308.639 213.087 309.565 212.875 310.491 212.662 311.417 212.448 312.343 212.234 313.269 212.02 314.195 211.806 315.121 211.591 316.048 211.376 316.974 211.161 317.9 210.946 318.826 210.73 319.752 210.513 320.678 210.297 321.604 210.079 322.53 209.863 323.457 209.645 324.383 209.427 325.309 209.209 326.235 208.99 327.161 208.771 328.087 208.552 329.013 208.333 329.939 208.114 330.866 207.894 331.792 207.673 332.718 207.453 333.644 207.232 334.57 207.011 335.496 206.79 336.422 206.568 337.348 206.346 338.274 206.124 339.201 205.902 340.127 205.679 341.053 205.456 341.979 205.233 342.905 205.009 343.831 204.786 344.757 204.562 345.683 204.337 346.61 204.113 347.536 203.888 348.462 203.664 349.388 203.438 350.314 203.213 351.24 202.987 352.166 202.762 353.092 202.535 354.019 202.309 354.945 202.082 355.871 201.856 356.797 201.628 357.723 201.401 358.649 201.174 359.575 200.946 360.501 200.718 361.428 200.49 362.354 200.262 363.28 200.033 364.206 199.805 365.132 199.576 366.058 199.347 366.984 199.118 367.91 198.888 368.836 198.658 369.763 198.428 370.689 198.198 371.615 197.968 372.541 197.738 373.467 197.507 374.393 197.276 375.319 197.045 376.245 196.814 377.172 196.583 378.098 196.351 379.024 196.12 379.95 195.888 380.876 195.656 381.802 195.424 382.728 195.191 383.654 194.959 384.581 194.726 385.507 194.494 386.433 194.261 387.359 194.028 388.285 193.795 389.211 193.561 390.137 193.328 391.063 193.094 391.99 192.86 392.916 192.626 393.842 192.392 394.768 192.158 395.694 191.924 396.62 191.689 397.546 191.454 398.472 191.22 399.398 190.985 400.325 190.75 401.251 190.515 402.177 190.28 403.103 190.044 404.029 189.809 404.955 189.573 405.881 189.337 406.807 189.101 407.734 188.866 408.66 188.63 409.586 188.393 410.512 188.157 411.438 187.921 412.364 187.684 413.29 187.448 414.216 187.211 415.143 186.974 416.069 186.737 416.995 186.5 417.921 186.263 418.847 186.026 419.773 185.789 420.699 185.552 421.625 185.314 422.552 185.076 423.478 184.839 424.404 184.601 425.33 184.363 426.256 184.125 427.182 183.887 428.108 183.65 429.034 183.411 429.961 183.173 430.887 182.935 431.813 182.697 432.739 182.458 433.665 182.22 434.591 181.981 435.517 181.742 436.443 181.504 437.37 181.265 438.296 181.026 439.222 180.788 440.148 180.548 441.074 180.31 442 180.071 442.926 179.831 443.852 179.592 444.778 179.353 445.705 179.114 446.631 178.874 447.557 178.635 448.483 178.395 449.409 178.156 450.335 177.917 451.261 177.677 452.187 177.437 453.114 177.197 454.04 176.958 454.966 176.718 455.892 176.478 456.818 176.238 457.744 175.998 458.67 175.758 459.596 175.518 460.522 175.278 461.449 175.038 462.375 174.798 463.301 174.558 464.227 174.318 465.153 174.077 466.079 173.837 467.005 173.597 467.931 173.357 468.858 173.116 469.784 172.876 470.71 172.635 471.636 172.395 472.562 172.154 473.488 171.914 474.414 171.674 475.34 171.433 476.267 171.192 477.193 170.952 478.119 170.711 479.045 170.471 479.971 170.23 480.897 169.989 481.823 169.748 482.749 169.508 483.676 169.267 484.602 169.026 485.528 168.786 486.454 168.545 487.38 168.304 488.306 168.063 489.232 167.822 490.158 167.582 491.085 167.341 492.011 167.1 492.937 166.859 493.863 166.618 494.789 166.377 495.715 166.136 496.641 165.896 497.567 165.655 498.493 165.414 499.42 165.173 500.346 164.932 501.272 164.691 502.198 164.45 503.124 164.209 504.05 163.968 504.976 163.727 505.902 163.487 506.829 163.246 507.755 163.005 508.681 162.764 509.607 162.523 510.533 162.282 511.459 162.041 512.385 161.8 513.311 161.559 514.238 161.318 515.164 161.078 516.09 160.837 517.016 160.596 517.942 160.355 518.868 160.114 519.794 159.873 520.72 159.632 521.647 159.392 522.573 159.151 523.499 158.91 524.425 158.669 525.351 158.429 526.277 158.188 527.203 157.947 528.129 157.706 529.056 157.466 529.982 157.225 530.908 156.984 531.834 156.743 532.76 156.503 533.686 156.262 534.612 156.021 535.538 155.781 536.464 155.54 537.391 155.3 538.317 155.059 539.243 154.818 540.169 154.578 541.095 154.337 542.021 154.097 542.947 153.857 543.873 153.616 544.8 153.376 545.726 153.135 546.652 152.895 547.578 152.654 548.504 152.414 549.43 152.174 550.356 151.934 551.282 151.693 552.209 151.453 553.135 151.213 554.061 150.973 554.987 150.732 555.913 150.492 556.839 150.252 557.765 150.012 558.691 149.772 559.617 149.532 560.544 149.292 561.47 149.052 562.396 148.812 563.322 148.572 564.248 148.332 565.174 148.093 566.1 147.853 567.026 147.613 567.953 147.373 568.879 147.134 569.805 146.894 570.731 146.655 571.657 146.415 572.583 146.175 573.509 145.935 574.435 145.696 575.362 145.457 576.288 145.217 577.214 144.978 578.14 144.738 579.066 144.499 579.992 144.26 580.918 144.021 581.844 143.781 582.771 143.542 583.697 143.303 584.623 143.064 585.549 142.824 586.475 142.586 587.401 142.347 588.327 142.107 589.253 141.869 590.18 141.63 591.106 141.391 592.032 141.152 592.958 140.913 593.884 140.674 594.81 140.436 595.736 140.197 596.662 139.959 597.589 139.72 598.515 139.482 599.441 139.243 600.367 139.005 601.293 138.766 602.219 138.528 603.145 138.289 604.071 138.051 604.997 137.813 605.924 137.574 606.85 137.337 607.776 137.098 608.702 136.86 609.628 136.622 610.554 136.384 611.48 136.146 612.406 135.909 613.333 135.671 614.259 135.433 615.185 135.195 616.111 134.957 617.037 134.72 617.963 134.482 618.889 134.244 619.815 134.007 620.742 133.77 621.668 133.532 622.594 133.295 623.52 133.057 624.446 132.82 625.372 132.583 626.298 132.345 627.224 132.108 628.151 131.871 629.077 131.634 630.003 131.397 630.929 131.16 631.855 130.923 632.781 130.686 633.707 130.45 634.633 130.213 635.559 129.976 636.486 129.74 637.412 129.503 638.338 129.267 639.264 129.03 640.19 128.793 641.116 128.557 642.042 128.321 642.968 128.085 643.895 127.848 644.821 127.612 645.747 127.376 646.673 127.14 647.599 126.904 648.525 126.668 649.451 126.432 650.377 126.196 651.304 125.96 652.23 125.724 653.156 125.489 654.082 125.253 655.008 125.017 655.934 124.782 656.86 124.546 657.786 124.311 658.713 124.076 659.639 123.84 660.565 123.605 661.491 123.37 662.417 123.135 663.343 122.899 664.269 122.664 665.195 122.43 666.121 122.194 667.048 121.959 667.974 121.725 668.9 121.49 669.826 121.255 670.752 121.02 671.678 120.786 672.604 120.552 673.531 120.317 674.457 120.082 675.383 119.848 676.309 119.614 677.235 119.379 678.161 119.145 679.087 118.911 680.013 118.677 680.939 118.443 681.866 118.209 682.792 117.975 683.718 117.741 684.644 117.507 685.57 117.273 686.496 117.04 687.422 116.806 688.348 116.573 689.275 116.339 690.201 116.106 691.127 115.872 692.053 115.639 692.979 115.406 693.905 115.173 694.831 114.939 695.757 114.706 696.684 114.473 697.61 114.24 698.536 114.007 699.462 113.775 700.388 113.541 701.314 113.309 702.24 113.076 703.166 112.844 704.093 112.611 705.019 112.379 705.945 112.146 706.871 111.914 707.797 111.681 708.723 111.449 709.649 111.217 710.575 110.985 711.501 110.753 712.428 110.521 713.354 110.289 714.28 110.057 715.206 109.825 716.132 109.593 717.058 109.362 717.984 109.13 718.91 108.898 719.837 108.667 720.763 108.436 721.689 108.204 722.615 107.973 723.541 107.742 724.467 107.51 725.393 107.279 726.319 107.048 727.246 106.817 728.172 106.586 729.098 106.355 730.024 106.125 730.95 105.894 731.876 105.663 732.802 105.433 733.728 105.202 734.655 104.971 735.581 104.741 736.507 104.511 737.433 104.281 738.359 104.05 739.285 103.82 740.211 103.59 741.137 103.36 742.063 103.13 742.99 102.9 743.916 102.67 744.842 102.44 745.768 102.211 746.694 101.981 747.62 101.752 748.546 101.522 749.472 101.293 750.399 101.063 751.325 100.834 752.251 100.604 753.177 100.375 754.103 100.146 755.029 99.917 755.955 99.688 756.881 99.459 757.807 99.23 758.734 99.001 759.66 98.773 760.586 98.544 761.512 98.315 762.438 98.087 763.364 97.858 764.29 97.63 765.216 97.402 766.143 97.174 767.069 96.945 767.995 96.717 768.921 96.489 769.847 96.261 770.773 96.033 771.699 95.805 772.625 95.577 773.552 95.35 774.478 95.122 775.404 94.894 776.33 94.667 777.256 94.439 778.182 94.212 779.108 93.985 780.034 93.757 780.961 93.53 781.887 93.303 782.813 93.076 783.739 92.849 784.665 92.622 785.591 92.395 786.517 92.168 787.443 91.942 788.37 91.715 789.296 91.489 790.222 91.262 791.148 91.036 792.074 90.809 793 90.583 793.926 90.357 794.852 90.13 795.779 89.904 796.705 89.678 797.631 89.452 798.557 89.227 799.483 89.001 800.409 88.775 801.335 88.549 802.261 88.324 803.187 88.098 804.114 87.873 805.04 87.647 805.966 87.422 806.892 87.196 807.818 86.971 808.744 86.746 809.67 86.521 810.597 86.296 811.523 86.071 812.449 85.846 813.375 85.621 814.301 85.397 815.227 85.172 816.153 84.948 817.079 84.723 818.005 84.499 818.932 84.274"/><path class="cls-5" d="M151.177,378.82a3.522,3.522,0,1,0-3.521,3.52,3.52,3.52,0,0,0,3.521-3.52Z" transform="translate(58 -140.276)"/><path class="cls-5" d="M147.656,375.55a3.271,3.271,0,0,1,3.271,3.27h0a3.272,3.272,0,1,1-3.271-3.27Zm0-.5a3.77,3.77,0,1,0,3.771,3.77h0a3.77,3.77,0,0,0-3.771-3.77Z" transform="translate(58 -140.276)"/><path class="cls-5" d="M213.413,371.071a3.522,3.522,0,1,0-3.521,3.52,3.521,3.521,0,0,0,3.521-3.52Z" transform="translate(58 -140.276)"/><path class="cls-5" d="M209.892,367.8a3.271,3.271,0,0,1,3.271,3.27h0a3.272,3.272,0,1,1-3.271-3.27Zm0-.5a3.77,3.77,0,1,0,3.771,3.77h0a3.771,3.771,0,0,0-3.771-3.77Z" transform="translate(58 -140.276)"/><path class="cls-5" d="M275.464,368.98a3.522,3.522,0,1,0-3.522,3.52,3.521,3.521,0,0,0,3.522-3.52Z" transform="translate(58 -140.276)"/><path class="cls-5" d="M271.942,365.71a3.271,3.271,0,0,1,3.272,3.27h0a3.272,3.272,0,1,1-3.272-3.27Zm0-.5a3.77,3.77,0,1,0,3.772,3.77h0a3.771,3.771,0,0,0-3.772-3.77Z" transform="translate(58 -140.276)"/><path class="cls-5" d="M409.752,360.955a3.521,3.521,0,1,0-3.521,3.519,3.52,3.52,0,0,0,3.521-3.519Z" transform="translate(58 -140.276)"/><path class="cls-5" d="M406.231,357.685a3.27,3.27,0,0,1,3.271,3.27h0a3.271,3.271,0,1,1-3.271-3.27Zm0-.5A3.771,3.771,0,1,0,410,360.955h0a3.772,3.772,0,0,0-3.772-3.771Z" transform="translate(58 -140.276)"/><path class="cls-5" d="M581.086,350.254a3.521,3.521,0,1,0-3.521,3.519,3.52,3.52,0,0,0,3.521-3.519Z" transform="translate(58 -140.276)"/><path class="cls-5" d="M577.565,346.984a3.27,3.27,0,0,1,3.272,3.27h0a3.272,3.272,0,1,1-3.272-3.27Zm0-.5a3.771,3.771,0,1,0,3.772,3.771h0a3.772,3.772,0,0,0-3.772-3.771Z" transform="translate(58 -140.276)"/><path class="cls-5" d="M710.745,319.75a3.522,3.522,0,1,0-3.522,3.519,3.521,3.521,0,0,0,3.522-3.519Z" transform="translate(58 -140.276)"/><path class="cls-5" d="M707.223,316.48a3.27,3.27,0,0,1,3.272,3.27h0a3.272,3.272,0,1,1-3.272-3.27Zm0-.5A3.771,3.771,0,1,0,711,319.75h0a3.772,3.772,0,0,0-3.772-3.771Z" transform="translate(58 -140.276)"/><rect class="cls-1" x="735.875" y="31.714" width="121.216" height="43.714"/><line class="cls-4" x1="741.254" y1="63.843" x2="771.23" y2="63.843"/><path class="cls-5" d="M701.771,183.575a3.522,3.522,0,1,0-3.522,3.52,3.521,3.521,0,0,0,3.522-3.52Z" transform="translate(58 -140.276)"/><path class="cls-5" d="M698.249,180.305a3.271,3.271,0,0,1,3.272,3.27h0a3.272,3.272,0,1,1-3.272-3.27Zm0-.5a3.77,3.77,0,1,0,3.772,3.77h0a3.771,3.771,0,0,0-3.772-3.77Z" transform="translate(58 -140.276)"/><rect class="cls-6" x="735.875" y="31.714" width="121.216" height="43.714"/><text class="cls-7" transform="translate(119.91 288.333)">9</text><text class="cls-7" transform="translate(208.093 288.333)">10</text><text class="cls-7" transform="translate(300.704 288.333)">11</text><text class="cls-7" transform="translate(393.318 288.333)">12</text><text class="cls-7" transform="translate(485.929 288.333)">13</text><text class="cls-7" transform="translate(578.542 288.333)">14</text><text class="cls-7" transform="translate(671.153 288.333)">15</text><text class="cls-7" transform="translate(763.766 288.333)">16</text><text class="cls-7" transform="translate(856.38 288.333)">17</text><text class="cls-7" transform="translate(107.891 275.322)">0</text><text class="cls-7" transform="translate(99.031 244.572)">10</text><text class="cls-7" transform="translate(99.031 213.821)">20</text><text class="cls-7" transform="translate(99.031 183.071)">30</text><text class="cls-7" transform="translate(99.031 152.321)">40</text><text class="cls-7" transform="translate(99.031 121.57)">50</text><text class="cls-7" transform="translate(99.031 90.82)">60</text><text class="cls-7" transform="translate(99.031 60.07)">70</text><text class="cls-7" transform="translate(99.031 29.323)">80</text><text class="cls-8" transform="translate(422.776 310.011)">气流速率 <tspan class="cls-9" x="72" y="0">v</tspan></text><text class="cls-7" transform="translate(502.839 315.339) scale(0.583)">p</text><text class="cls-7" transform="translate(508.026 310.011)"><tspan xml:space="preserve"> / (m·s</tspan></text><text class="cls-7" transform="translate(554.261 304.683) scale(0.583)">-1</text><text class="cls-7" transform="translate(562.523 310.011)">)</text><text class="cls-8" transform="translate(774.13 49.595)">实验数据点</text><text class="cls-8" transform="translate(782.13 70.172)">理论曲线</text><text class="cls-8" transform="translate(71.75 219.217) rotate(-90)">吹气下稳定旋转阶段<tspan x="-12.861" y="19.2">飓风球转速 </tspan><tspan class="cls-9" x="75.139" y="19.2">Ω / (</tspan><tspan class="cls-10" x="107.537" y="19.2">r</tspan><tspan class="cls-9" x="113.881" y="19.2">ad·s</tspan></text><text class="cls-7" transform="translate(85.622 77.258) rotate(-90) scale(0.583)">-1</text><text class="cls-7" transform="translate(90.95 68.996) rotate(-90)">)</text><text class="cls-7" transform="translate(124.34 17.559)">×2π</text></svg>